<?xml version="1.0" encoding="UTF-8"?>
<svg id="Layer_2" xmlns="http://www.w3.org/2000/svg" viewBox="0 0 641.9098 394.54">
  <g id="Layer_1-2" data-name="Layer_1">
    <g>
      <path d="M251.4388,74.9905c-2.1937-.8502-2.419-2.4364-1.8231-3.9963,1.4639-2.6652,6.1896.8378,6.1135-4.0141-1.3639.1771-2.6134.3394-3.8629.5018,2.7263-4.8031,6.0306-8.5612,10.8789-10.8127,4.0479-1.8798,8.0577-3.612,11.8324-6.3315,6.8775-4.955,18.9462-3.9135,25.1721,2.8703,1.6532,1.8014,4.3686,2.5949,6.3735,4.3288,1.3507,1.1681,3.8964-.8607,2.9629-2.1609-2.4142-3.3626,1.021-3.3488,2.1885-4.6044-.5049-3.0623-3.5134-6.2631.6641-8.9193.5633-4.6037,4.1157-8.6992,2.2305-13.7634-.3171-.8519.06-2.1684.5181-3.065,1.4781-2.8928,3.0134-5.7737,4.7689-8.5034,2.4148-3.7549,5.9633-7.0557,7.3525-11.1228,1.5992-4.682,5.3838-4.7245,8.4883-5.2939,2.4809-.455,5.726.5772,7.4968,3.3494,2.5905,4.0555,5.4947,7.9447,7.7218,12.1899,3.0603,5.8333,6.1968,11.7445,8.2086,17.975,1.7924,5.5509,2.622,11.5552,2.9161,17.4077.2978,5.9267.6486,9.7935,3.7455,15.3129,3.165-2.2064,5.4067-5.1644,6.9238-8.485,1.848-4.045,4.6489-6.5164,8.8127-8.0552,5.6122-2.0742,11.3544-1.257,17.0449-1.3571.946-.0166,1.9227,1.7206,2.9982,2.7563.7373-.3113,1.7124-.7231,2.6167-1.1049,1.8269,1.3492,3.6467,2.4765,5.2125,3.886,7.7649,6.9898,14.2398,15.0085,15.975,25.567,1.3076,7.9568-.5341,15.8679-3.583,23.2715-1.8432,4.4757-4.6433,8.5523-6.9333,12.8508-1.6016,3.0062-4.303,4.0897-7.1155,4.7361-2.7502-5.3994-5.3733-10.5495-8.1792-16.0584-2.7611.0711-5.754-.3788-6.6383-4.0164-1.4723-.0675-2.781-.3897-3.9399-.1041-1.0817.2666-2.3377.9598-2.9257,1.854-1.16,1.7643-2.1464,3.7277-2.7438,5.7453-.3629,1.226-.0188,2.744.2947,4.0627.2763,1.1628.7249,2.426,1.4872,3.3081,3.7165,4.3006,4.6597,9.8899,7.0981,14.7712,5.2181,10.4461,4.6612,20.7407-.1005,31.1747-1.6418,3.5975-2.3566,7.6117-3.92,11.2531-1.9154,4.4616-4.0992,8.8347-6.5307,13.0354-1.0161,1.7554-2.7262,3.5151-4.5431,4.3217-4.6714,2.0738-9.461,4.4044-14.4255,5.1456-4.8337.7217-10.0329.066-14.9003-.8732-3.4267-.6612-4.6094-4.6991-7.0058-7.014-1.165-1.1253-1.1452-3.6965-3.8364-3.3114-.1623.5289-.4632,1.0134-.43,1.4739.8382,11.6348,2.0279,23.2554,2.4618,34.9043.2668,7.1647-.1962,14.4291-1.1715,21.5334-.4186,3.0497-1.5205,6.0764-1.4606,9.2541.0158.8423.2914,1.6797.4798,2.6918,3.8047-.5512,4.7769-3.623,6.3685-6.0249.6609-.9972,1.0334-2.3049,1.9076-3.0154,1.602-1.3019,3.0786-2.4556,2.891-4.8273-.0508-.6429.3482-1.4909.818-1.9764,2.1843-2.2571,4.4659-4.4199,6.7127-6.6164l-.1395-.1583c1.3484,2.8666,2.9435,1.5284,3.7964-.1183.782-1.5098.7616-3.4352,1.1299-5.361,1.6461-.6421,5.4003-4.3908,6.3017-6.1577.4612-.904,1.2282-1.7706,2.0688-2.3433,6.2327-4.2469,12.5212-8.4119,18.7853-12.613.8877-.5953,1.822-1.1577,2.5919-1.8861,4.3269-4.0942,9.86-5.8646,15.176-8.1089,3.4987-1.4771,6.8071-3.3986,10.2615-4.989,3.4519-1.5892,6.9118-3.2125,10.4996-4.4353,2.115-.7209,4.0824-1.8644,3.955-3.8666-.2924-4.5968,3.2551-7.0868,5.0808-10.4458,2.9951-5.5103,9.5552-6.7373,13.9959-10.5939,4.2485,1.7105,6.808-3.9238,11.4531-2.3023,4.1681,1.455,9.1597.6401,13.2409,2.2306,4.4353,1.7284,8.461,4.9552,10.7651,9.4277,6.2303,12.094,6.0721,23.9686-1.6503,35.4906-2.0157,3.0074-3.6492,6.2594-7.8462,6.7767-.5872.0724-1.0374,1.2558-1.4815,1.8344-1.4497-.3172-1.5273-4.4226-3.3866-1.3599-1.2291,2.0247-2.8253,2.225-4.4296,2.3995-3.935.4281-7.9113.5049-11.8739.6413-2.6088.0898-4.834-.612-6.9104-2.4976-3.8381-3.4854-7.9749-6.6454-12.0448-9.8684-.6462-.5117-1.5704-.7842-2.4057-.9149-.88-.1377-2.0073.384-2.6836.0054-7.3333-4.1071-12.3472,1.8704-18.2115,4.0856-.8401.3173-1.6203,1.2046-2.4087,1.1808-5.3314-.1611-8.9445,3.2889-13.0254,5.8436-1.5793.9887-3.4989,1.42-5.2074,2.2244-.4851.2285-.8001.8569-1.1457,1.336-1.0435,1.4464-1.8945,2.8147-4.2612,2.2815-.7959-.1793.0142,3.9982-3.0859,2.4676-.2142-.1058-.6147.1658-.9285.2618,1.5631,3.9797-2.5004,3.2922-3.9263,4.8161-1.5572,1.6642-2.8721,3.5568-4.2744,5.3638-1.5934,2.0532-3.9641,3.4409-4.7223,6.2446-.3497,1.2932-1.4287,2.6151-2.5372,3.4399-6.622,4.9276-9.7788,12.8448-15.9375,18.1863-4.1868,3.6312-4.931,8.989-6.4861,14.0092-3.2719,10.5619-5.2687,21.321-6.5823,33.0478,4.3703-.2016,8.4103-.3878,12.4829-.5757-.2923-3.5852-.8536-6.7144-.7018-9.8086.1199-2.4438.6291-5.1213,1.8156-7.2126,3.4933-6.1576,7.4093-12.0752,11.1605-18.0865.0961-.154.1664-.3489.3039-.449,9.9774-7.2639,18.2111-17.1576,31.0322-20.1296,4.3608-1.0109,8.4859-3.049,12.851-4.0268,4.7325-1.06,9.6007-1.716,14.4436-2.0355,7.361-.4856,14.7545-.7685,22.1274-.6631,3.8951.0556,7.7904,1.0357,11.6596,1.7412,4.5388.8276,9.1084,1.5898,13.5574,2.781,5.743,1.5376,11.4796,3.2057,17.042,5.2897,12.7012,4.7585,24.8014,10.8646,36.8608,17.0414,4.0002,2.0489,8.7907,3.2212,11.8501,6.2009,1.962,1.9109,4.4719,1.3664,6.0357,3.2626,1.491,1.808,3.1727,3.5439,5.0516,4.9307,6.1255,4.5215,11.8813,9.4084,17.1331,14.9526,2.8231,2.9803,5.9436,5.9651,9.4974,7.9119,9.4835,5.195,19.0644,10.3859,30.0219,11.9245,2.3175.3255,4.7008.4683,7.0341.3393,5.439-.3007,9.1949-2.3381,11.4567-8.0842,3.6599-9.2983.9482-16.5859-5.3612-23.1007-2.8129-2.9043-3.352-6.488-4.7936-10.6196,4.904.5098,8.0098,3.5103,11.1335,6.2012,2.2871,1.9702,4.14,4.444,6.1902,6.6898.2443.2677.4716.6628.7763.747,5.5922,1.5454,6.2223,6.9432,8.5629,11.0004,1.3447,2.3308,2.8573,4.6066,3.8645,7.0821,2.9029,7.1336,2.2741,14.5012.5584,21.7368-.5736,2.4189-1.0867,4.3684,1.6478,6.1873-1.9781,1.2427-3.4243,2.1513-5.2418,3.293.594.7334,1.0963,1.3535,1.8747,2.3146-5.5116,6.399-10.6166,13.3496-17.7579,18.1948-3.3802,2.2934-7.473,3.5403-11.2555,5.2332-.6581.2945-1.4356.7445-2.0608.6229-5.0046-.973-9.4888,1.2778-14.2161,2.0002-2.5233.3855-5.2843-.7247-7.9288-1.2098-2.419-.4438-4.8556-1.4655-7.2313-1.326-4.4185.2595-7.7349-1.7494-11.4842-4.932-.8647,1.7444-1.9959,3.0078-2.0094,4.2831-.0222,2.1189.4849,4.3023,1.1067,6.3563,1.1861,3.9183,3.2834,7.6908,3.7182,11.6645.3374,3.0827-1.2784,6.3792-2.1581,10.1467-2.6575-1.0175-4.5955-1.7597-6.6919-2.5624-.6752.5353-1.6084,1.2752-2.8131,2.2304-1.1439-1.4715-2.1102-2.7146-3.2761-4.2146-5.3673,1.3286-10.6055.0442-16.069-1.3184-6.8384-1.7054-12.6373-4.378-17.5211-9.5734-3.3123-3.5235-7.5034-6.2064-11.1432-9.4431-1.5607-1.3878-2.7405-3.2109-4.0524-4.8686-.6708-.8475-1.1606-1.8498-1.8863-2.6408-9.4734-10.3249-17.3022-21.6507-21.7382-35.1046-.5005-1.5179-1.4638-2.9082-2.3455-4.2716-6.7743-10.4759-13.6102-20.9119-20.3685-31.3982-4.539-7.0429-10.2349-12.7236-17.9322-16.3306-3.4165-1.601-6.7035-3.5273-9.8914-5.5543-3.4523-2.1952-7.3082-2.9859-11.1363-4.1155-3.737-1.1026-7.2287-.0269-10.8014.1407-7.8501.3682-15.7121.8447-23.5078,1.786-2.3335.2818-4.5998,2.0518-6.6627,3.4787-8.2495,5.7068-14.7698,13.1033-20.3339,21.3821-2.5653,3.8169-5.0749,7.6712-7.2579,12.0543,4.0932-1.6441,7.8457-.0378,11.6-.1114,1.3294-.026,6.8127.7791,11.6256,2.5544.5971,3.2856,1.3661,6.7252,1.8109,10.2063.3772,2.9524-3.3762,7.4463-6.2939,7.2833-1.6042-.0897-2.5661.3944-3.8933,1.0357-4.6025,2.2239-9.5858.7692-14.4073.995-.962.045-1.917.2384-2.8753.3634.1819.98.1788,2.0431.5754,2.9268,2.8312,6.309,5.3775,12.7849,8.7247,18.8133,4.0658,7.3225,8.1802,14.7354,16.486,18.5139,5.5404,2.5204,11.0231,5.453,16.9228,6.6181,7.726,1.5258,15.4378.7243,22.1034-4.3653,1.2116-.9251,3.4986-1.2422,3.8726-2.328,1.7991-5.2222,7.7115-8.4734,7.0443-14.8054-.374-3.5501-.4355-7.1671-1.1874-10.6348-.968-4.465-3.8186-7.1631-8.9631-7.181-2.458,4.1012.4704,9.8687-4.0124,13.4439-3.6988,2.95-6.3958,7.2548-11.822,7.9435-1.1523-.5383-2.7241-1.1698-4.1978-1.9794-5.6945-3.1285-8.0477-8.5173-9.4702-14.4366-.5037-2.0957-.5743-4.2925-.9031-6.4339-.8739-5.6921,1.1096-10.2418,4.2699-15.0675,4.5524-6.9512,11.0361-10.2729,18.4364-12.127,3.1661-.7932,6.9803-.3551,10.1725.6085,5.7066,1.7224,11.0385,4.4463,14.5863,9.6537.6105.8962,1.2976,1.7581,2.0537,2.5342,5.3007,5.442,6.4367,12.5246,7.9143,19.5317,1.18,5.5959-.1732,10.8503-1.9775,15.9411-2.6157,7.3803-6.766,14.0812-12.4471,19.3837-5.3115,4.9575-11.9718,8.1561-19.1609,9.6554-4.3533.908-8.8562,1.1218-13.3,1.5665-6.7829.6786-13.2442.1167-19.369-3.5395-2.8194-1.6831-6.2478-2.0507-9.1576-4.1808-7.2219-5.2867-12.1127-12.4712-16.5016-19.8651-1.8195-3.0653-4.2981-6.4492-3.8511-10.8742.2308-2.2851-1.3514-4.815-2.3243-7.1467-1.7754-4.2548-3.2464-8.458.2496-12.9713-3.7757-1.7011-6.905.8437-10.6952-.2343-.1462,2.517-.5086,4.6032-.3411,6.6459.5149,6.2785,1.4677,12.5289,1.777,18.8135.1657,3.368-.0261,7.0127-1.1817,10.1133-1.1392,3.0564-1.3098,5.8971-.9077,8.9246.4963,3.7361-.193,6.6331-3.964,8.601-1.5218.7941-2.2867,3.0384-3.6591,4.9986-1.7356-.8066-2.6062-2.2692-2.9801-4.3357-1.0165-5.6182-2.5059-10.955-1.6726-17.0119.8954-6.5086-.4274-13.3213-.7724-20.002-.1758-3.4048-.4644-6.8111-.4615-10.2164.0039-4.5559-.9859-6.0712-5.612-7.2884.0523,3.8932-1.0297,7.277-4.6749,9.1414-.0195,1.136,3.1391,1.6104.5404,3.1022,1.3872,6.0039-2.3669,10.1146-5.4741,14.355-4.2631,5.818-8.9526,11.3278-13.1256,17.2065-4.245,5.9804-10.424,8.8962-16.9002,11.2438-8.1886,2.9685-16.7719,4.1886-25.4301,3.079-7.7047-.9874-14.8854-3.1796-21.2239-8.4572-9.4977-7.9082-13.2825-18.5711-14.6314-29.8544-.8534-7.1385.8292-14.7931,4.1488-21.6347,3.2759-6.7517,9.5321-10.0557,15.6977-13.4455,1.1086-.6095,2.3036-1.067,3.3911-1.7091,9.4917-5.6049,16.7458-3.3707,23.5059,3.1314,1.2931,1.2438,2.3109,2.9705,3.8281,3.7481,4.6883,2.4029,4.9955,6.5614,5.8135,11.0878.9092,5.0308-1.0262,7.9274-4.1423,11.3999-2.1437,2.389-4.0245,4.7139-6.8588,6.3768-4.6953,2.7547-10.3786,2.3523-13.736-1.7857-2.2669-2.7939-3.9918-6.0281-5.9521-9.0699-.4356-.676-.8416-1.3712-1.4356-2.3425-3.5304,7.5164-3.6738,14.6008-.5959,21.7302,1.9533,4.5245,5.298,7.7991,9.8244,9.5464,18.6969,7.2172,34.9403-.8083,46.1028-12.6121,5.136-5.4311,5.4507-13.1482,4.7053-20.4766-.2881-2.8328-1.0824-2.9548-5.6844-1.4465.3131-1.0147.5292-1.7149.8999-2.9163-2.1429-.2085-4.185-.4072-6.2541-.6084-.3482,1.0853-.6096,1.8998-.9161,2.8551-.5539-.2007-1.1997-.2329-1.4912-.5708-3.9713-4.6028-4.4431-10.1471-3.5945-15.7561.5933-3.9218,4.7766-6.1149,8.777-5.2939,1.6627.3413,3.346.5817,5.5017.9505-1.5502-6.889-4.7551-11.8433-9.5286-15.8794-6.0727-5.1346-12.1746-10.1538-19.3331-13.8439-4.636-2.3898-9.5333-1.7372-14.3123-2.4696-2.5685-.3936-5.1017-1.0176-8.3689-1.6842-.2157.235-1.0917,1.1894-2.3695,2.5815-.6297-1.4656-.8373-2.579-1.4981-3.238-.3657-.3647-1.49.0313-2.2724.0844.5076,2.5492-1.621,2.4202-2.9012,2.4188-5.5661-.0062-11.1364-.1886-16.6929-.5157-.7662-.0451-1.4636-1.2595-2.3108-2.0415-.2717,1.0532-.4876,1.89-.7348,2.8483-1.7767.3132-3.9877-1.1224-5.3646,1.2579-.218.377-1.6394-.1098-2.3431.1862-1.9051.8014-5.231-2.27-5.8115,2.0985-3.9011-1.6399-4.9323,2.3919-7.379,3.5895-4.5659,2.2348-6.397,6.2297-8.2842,10.3858-3.5131,7.7369-6.3486,15.8996-10.7968,23.0583-3.8808,6.2457-7.8791,12.6027-12.7617,18.1949-4.617,5.2879-9.1576,10.8049-14.5566,15.2103-8.4974,6.9335-17.108,13.8387-26.9466,18.95-2.3953,1.2444-4.2172,3.1025-7.4058,3.1774-2.3942.0563-4.7392,2.1941-7.1066,3.404-1.7174.8777-3.4357,1.7536-5.0652,2.5852-1.2929-2.1621-3.0912-4.0993-3.637-6.3414-.7525-3.0915-.8728-6.4312-.6896-9.6317.214-3.7385.4074-7.2574-2.6961-9.6792-5.6701,3.5068-11.0099,7.456-16.8923,10.2712-6.2677,2.9996-12.3601,6.6736-19.6303,7.3008-6.7701.5839-12.8504-.9462-19.108-3.5212-3.667-1.5089-6.9775-5.017-11.7077-3.7748-.6403.1681-1.7747-.9756-2.474-1.7088-2.1049-2.2067-3.962-4.6663-6.1801-6.7451-5.0472-4.7303-9.116-10.0501-11.5863-16.5941-.9775-2.5896-3.1735-4.8239-3.7224-7.4484C.7838,323.1233.0311,317.8783.0005,312.6943c-.0384-6.4896,2.2055-12.7138,5.0538-18.4027,2.6085-5.2099,7.4473-9.1619,13.1197-10.2229,3.944-.7377,8.3613,1.0553,12.7791,1.7512-1.4911,4.698-2.7023,8.9961-4.2311,13.1779-1.2217,3.3419-.8686,6.3892.8308,9.3775,1.6789,2.9524,2.5186,5.9728.2208,10.0318,1.671-.6647,2.4087-.9582,3.1084-1.2366,1.6698,2.0179,3.2313,4.1136,5.0081,6.0072,3.3597,3.5804,6.8739,4.5311,10.8655,2.1585,5.5043-3.2719,11.452-5.7873,16.4226-10.0378,2.509-2.1454,5.93-3.1845,8.7295-5.0395,3.9035-2.5866,7.3221-6.0569,11.4669-8.0936,7.1211-3.4994,11.8181-9.2298,16.3961-15.2814.5899-.7797,1.6783-1.1914,2.5556-1.7418.7245-.4546,2.1497-.93,2.1143-1.28-.322-3.1866,3.5167-2.3064,3.923-3.8843.6666-2.589,2.5181-3.2926,4.3921-4.3163,1.8394-1.0048,3.6311-2.0975,5.4368-3.1635.6083-.3591,1.3151-.6454,1.7736-1.1498,3.9748-4.3724,9.6434-6.2139,14.1992-9.5383,4.8869-3.566,10.1195-5.987,15.4676-8.4585,6.6-3.0501,13.6035-4.6259,20.6923-5.9439,7.0862-1.3175,14.1352-3.5108,21.2593-3.7832,9.6308-.3682,19.0908-2.6174,29.035-.5798,10.3968,2.1303,19.9856,6.0192,29.752,9.6955,6.7366,2.5358,13.5228,4.9494,20.1901,7.6561,3.6491,1.4813,7.1981,3.283,10.6111,5.2538,4.6458,2.6825,9.5099,5.1043,13.1941,9.1933.4837.5367,1.3865.9015,1.5447,1.4931,1.1956,4.4698,5.3535,7.2078,6.5751,11.7122,1.5923,5.8714,3.5707,11.6382,5.5725,18.0579,3.4356,1.4144,7.6155,1.2654,12.3089,1.0141-1.5907-14.0534-7.1495-26.8534-7.4785-41.1649-4.3961-2.7758-4.216-8.8266-7.131-13.198-1.0854-1.6277-1.7387-3.6117-3.0405-5.0143-4.021-4.3323-8.2132-8.5108-12.464-12.6196-.6307-.6097-1.9356-.5218-3.0371-.7824.0698-.7683.1579-1.7395.3342-3.681-1.358,1.1595-2.0563,1.7556-2.9245,2.4969-4.77-3.4943-11.2684-4.2776-15.2457-9.2625,1.2229-.2216,3.2357,1.3761,3.4194-1.9153-1.2975.7792-2.2996,1.381-3.3018,1.9828-2.157-2.4621-4.8459-4.1198-7.8812-5.2812-3.3574-1.2847-6.6526-2.752-10.0635-3.8693-1.776-.5818-3.7469-.5555-5.622-.8525-1.3706-.2171-3.3944-.0467-3.967-.8628-1.6984-2.4208-3.3348.1129-4.974-.4073-1.5192-1.3572-3.1099-2.7782-4.8102-4.2971-.4139.8126-.7288,1.4309-1.1702,2.2974-3.2041-1.1836-5.7929-.6311-8.6052,1.9374-3.1225,2.8519-7.0812,4.9566-10.9648,6.7665-5.4724,2.5504-10.9855.4007-16.3326-1.0191-2.4704-.656-4.9527-1.7935-7.0372-3.2675-4.4339-3.1354-7.2975-7.3578-7.881-12.9957-.2007-1.9388-1.4532-3.7656-1.6734-5.7062-.3412-3.0074-.6255-6.1304-.1854-9.0932.7639-5.1429,2.1882-10.1841,3.1572-15.3017.4586-2.422,1.1142-4.1425,3.6645-5.438,3.4237-1.7392,5.9309-4.7797,9.7981-6.3458,5.0175-2.0319,9.6437-1.3796,14.2556-.1053,3.9178,1.0824,7.4451,3.5048,11.302,4.9013,4.0481,1.4658,6.9803,4.2855,9.7048,7.2943,1.6247,1.7942,2.4898,4.2613,3.7891,6.3687,1.4469,2.3469,3.3118,3.8087,6.2109,4.6485,5.671,1.6427,11.155,3.9752,16.6352,6.2204,6.0779,2.4901,11.1435,6.6361,16.2295,10.6527,3.9451,3.1156,7.6852,6.5104,11.337,9.9703,2.0535,1.9455,3.7808,4.244,5.5903,6.4369,7.9303,9.6098,16.5261,18.712,23.0333,29.417,1.8265,3.0047,4.0095,5.3739,7.4002,7.1631.2265-2.2209.4312-4.125.6121-6.0313.1831-1.93-.0632-4.0206.6136-5.7539.8748-2.2405-2.9249-2.5109-1.521-4.6806,1.4824-2.2909-2.254-2.9328-1.5624-5.3245.8028-.468,1.8254-1.0642,3.6994-2.1568-1.5712-.2919-2.2879-.4251-3.4403-.6391,1.6788-7.5332-.3552-15.369,1.7441-23.2446,1.3234-4.9646.2468-10.5689.2468-16.5936-1.8437.9164-3.2539,1.5676-4.6186,2.3035-9.9304,5.3551-16.7001,4.4287-25.7164-2.1614-5.9893-4.3777-9.2295-10.9976-14.5916-15.779.9472-3.2058-4.0027-4.9222-2.0782-8.637.4701-.9073-.9562-2.9403-1.7418-4.3245-1.5687-2.7642-2.9894-5.3524-.5396-8.4662.9892-1.2572,1.1926-8.1012,1.1119-10.6052-.0317-.984.3822-2.0932.8982-2.9647,2.0521-3.4655,3.8842-6.9873,5.5129-10.7016,1.003-2.2873,3.6221-4.254,5.1634-6.7857,3.4348-5.642,4.6169-7.9764,5.862-14.6223-7.8627-8.9461-15.7126-9.8573-19.8531-2.5647,1.7525,2.4866,3.4361,4.8754,5.7117,8.1042-4.1204.6081-7.0968,1.3648-10.0678,1.3445-1.3696-.0093-3.092-1.2506-4.0268-2.4306-3.2177-4.0616-6.2238-8.2973-9.1783-12.5584-1.569-2.2628-2.5965-4.7805-1.9469-7.6657.1167-.5183.4791-1.2959.2655-1.5278-4.3724-4.7471-1.1897-9.2903.2978-13.8778.8218-.4651,1.6437-.93,2.4658-1.395-.38-.3459-.7599-.6919-1.1398-1.0378-.3942.8578-.7883,1.7157-1.1825,2.5734ZM60.4196,339.2817c3.5447,0,6.0349.0297,8.5241-.0105,1.6246-.0261,3.3671-.5761,4.849-.1571,4.4966,1.2716,8.6373.5009,12.4979-1.766,2.7496-1.6145,5.25-3.6522,7.8698-5.4892,7.6109-5.3369,15.2499-10.6341,22.8242-16.0223,2.1859-1.5549,4.7359-3.0019,6.1568-5.1382,2.4159-3.6325,7.6049-4.148,9.0682-8.6263.0792-.2424.6186-.4869.935-.4759,3.0949.1071,3.7835-2.2642,4.6991-4.4423.1222-.2907.4905-.4779.7614-.7282h5.3435c-2.7316,2.9947-2.9893,5.5277-1.241,8.3899.4816.7884.1268,2.565-.4788,3.4578-2.6119,3.8514-5.4366,7.5601-8.2293,11.2865-1.9057,2.5427-4.8316,4.7877-5.5529,7.6123-.647,2.5334-2.2189,4.3476-2.9747,6.6428-3.6669-.0046-1.5594,3.7535-3.5388,5.3547-3.5718,2.8894-6.3244,6.801-9.3578,10.3382-.6049.7054-.9353,1.6461-1.969,3.5288,1.721-.8377,2.4204-1.0044,2.881-1.4298,3.776-3.487,7.3581-7.2015,11.3007-10.485,3.0837-2.5682,4.9243-5.9316,7.1822-9.0772,3.8435-5.3546,7.5317-10.9477,12.1556-15.5699,2.99-2.989,4.0115-6.1259,4.7124-9.8788.4583-2.4542,1.1143-4.9644,2.2117-7.1879,2.6254-5.3198,6.1889-10.0269,10.2058-14.4057,1.2517-1.3646,2.1608-3.0433,3.9929-5.6814-4.5268.5475-7.6137.9975-10.7169,1.2414-.7587.0596-1.5488-.6608-2.3644-.8308-.7028-.1465-1.4997-.1636-2.1889.0158-1.3514.3519-2.6834,1.3212-3.9755,1.2431-2.5952-.1571-4.5403.9468-6.4245,2.377-1.5609,1.1848-3.0142,2.5106-4.562,3.7137-8.4557,6.5723-17.9966,11.9424-23.7538,21.4963-5.9305,3.9911-11.7896,8.0948-17.8239,11.9223-2.7007,1.713-5.8276,2.7413-8.6145,4.3366-1.4172.8112-2.4801,3.1143-3.7534,3.1545-5.9371.1873-9.8066,3.8637-13.7969,7.4447-.8479-.4813-1.5756-.8943-2.2395-1.2711-1.3315,1.4766-2.597,2.88-4.6146,5.1174ZM567.2646,338.5461c-4.2329-6.6055-8.6741-12.4067-14.9199-16.4496-1.0437-.6756-2.0339-1.5371-2.8111-2.5039-5.0267-6.2544-11.96-10.2151-18.0814-15.1495-.4165-.3358-.8802-.7343-1.3757-.8325-6.305-1.249-10.4304-6.1314-15.4255-9.4819-2.7135-1.8201-4.4315-5.0789-6.761-7.5347-1.3184-1.39-2.7965-2.8319-4.4951-3.6204-5.6757-2.6345-11.4766-5.0006-17.2465-7.4295-1.0209-.4297-2.1225-.6676-3.1868-.9942.3851,1.2151.9552,2.0091,1.7274,2.3661,6.6139,3.0574,12.4357,7.4056,17.5859,12.3557,4.1966,4.0335,8.9403,7.4216,12.8555,11.9013,3.0244,3.4605,5.833,7.5035,10.3325,9.917,2.6528,1.423,5.5602,3.1793,7.6648,5.6437,7.2587,8.4994,16.3478,14.5064,26.344,19.2181,2.4589,1.159,5.188,1.745,7.7929,2.5944ZM529.164,358.1039c.2712-.3531.5425-.7061.8137-1.0592-5.46-6.13-9.5867-12.9794-12.7854-20.5592-2.2351-5.2964-2.845-10.9127-4.6305-16.2883-3.734-11.2427-11.2687-18.5023-21.3303-23.7531-.2896-.1511-.889.2913-1.8977.6587,1.2698,1.8285,2.4476,3.3671,3.4574,5.0089,2.7806,4.5212,6.141,8.6371,7.4228,14.0796,1.4409,6.1181,3.1404,12.2961,5.725,17.9957,3.7789,8.3334,11.0682,14.0081,17.4535,20.2775,1.586,1.5573,3.83,2.4444,5.7716,3.6395ZM337.3384,146.014c-.7208-5.1045-4.8465-4.5552-7.9884-5.8975-.5969.9285-1.5419,1.756-1.6656,2.692-1.0479,7.9319-2.5169,15.8334-1.821,23.9108.3363,3.9035,1.7307,5.4521,5.6412,5.422,1.7397-.0134,3.4766-.3919,5.5401-.6445-.6267-4.4019.8634-8.6716-1.981-12.3243.4518-.4946,1.2478-1.3659,2.3918-2.6182-4.7352-1.8431.1174-5.966-2.9904-8.0828,1.1919-1.0194,1.9922-1.7039,2.8732-2.4574ZM526.6889,328.0411c-.9517,4.0901,1.4155,6.9621,2.64,10.1456,1.7443,4.5347,6.4538,5.1726,9.9698,7.4502,3.0316,1.9638,5.4909,1.8065,9.0762-.2963-7.1751-6.1543-13.9129-12.1845-21.6859-17.2995ZM26.8202,312.0836c-.3938-.2198-.7876-.4396-1.1814-.6595-.4155.9442-.8311,1.8883-1.2466,2.8324.2498.1354.4995.2709.7493.4063.5596-.8598,1.1192-1.7194,1.6787-2.5792ZM232.8331,270.1338c.1441.25.2882.5.4322.75.4661-.1636.9664-.2725,1.3747-.5282.1057-.0661-.0769-.5925-.1271-.9075-.56.2286-1.1199.4572-1.6799.6857Z"/>
      <path d="M355.1058,231.0953c-.0384-1.7518.6923-2.9332,2.6375-3.7687.3976,2.6788-1.5088,2.8775-2.7824,3.6035.0055.0069.1449.1652.1449.1652Z"/>
    </g>
  </g>
</svg>