<?xml version="1.0" encoding="UTF-8"?>
<svg id="Layer_1" xmlns="http://www.w3.org/2000/svg" viewBox="0 0 983.5645 103.5678">
  <path d="M234.9886,13.5009c0-.4585.0719-.7507-.0117-.9882-.5205-1.4776-1.8472-3.2262-1.4363-4.3452.5943-1.6184,2.2648-3.0304,3.7872-4.0788,2.8356-1.9526,7.1056-.9146,9.7224,2.0645,2.7724,3.1562,2.4189,7.9945-.9547,10.9314-4.5154,3.9308-9.4445,3.9331-14.6836,3.8532.3067,2.0726,1.4678,3.1483,3.9155,3.1996,7.3589.1544,14.7196.2705,22.0798.2805,2.3245.0032,4.7413-.0577,6.9405-.6946,1.3727-.3975,2.4647-1.878,3.5984-2.9608,1.8025-1.7215,3.3535-3.7602,5.3326-5.2324,4.8688-3.622,11.494-.0558,13.4924,4.1857,1.0746,2.2808,2.2866,4.5183,3.0937,6.8918.273.803-.2131,2.2649-.8646,2.903-1.6733,1.639-3.6404,2.9766-5.4775,4.4503-3.2445,2.6026-9.5818,2.8259-12.7111.3173-1.7897-1.4348-4.4242-2.2332-6.7687-2.4884-11.6625-1.2695-23.3412-1.0811-34.8624,1.2184-2.5713.5132-4.9641,2.3764-7.2084,3.9475-2.438,1.7067-4.5834,3.8263-6.8972,5.7159-5.7478,4.6942-4.8234,7.891-1.1256,12.6667,4.9736,6.4232,12.2001,9.7145,19.3198,13.1723,7.6336,3.7074,15.6733,2.8147,23.6725,2.7898.2709-.0008.5502-.1008.8113-.0612,4.9427.7501,9.0285-1.0808,12.6697-4.2139,2.3728-2.0418,4.9945-2.3345,7.8704-1.2874,1.7874.6508,3.5578,1.4454,5.4079,1.8065,4.138.8078,5.7434,4.1378,7.5019,7.2727.3214.5729-.0123,1.8125-.4549,2.4658-2.8285,4.1746-6.6742,7.2642-10.9751,9.8092-.52.3077-1.2494.5694-1.8038.4596-2.8937-.5737-5.8199-1.1025-8.6046-2.0354-.8363-.2802-1.4263-1.7411-1.8352-2.7771-2.2462-5.6916-2.2145-5.6512-8.2933-5.6005-4.5345.0378-9.0738-.2106-13.6043-.0873-2.9216.0795-5.9735.2064-8.447,3.111,4.3099.9644,6.7886,3.8934,9.1769,6.9783,2.5589,3.3052,2.8137,6.3529.6123,9.1382-1.5364,1.9438-6.8713,2.9047-9.4219,1.697-1.6712-.7913-2.7702-4.6165-1.8922-6.6991.2719-.6451.6551-1.2434,1.0502-1.98-3.8005-1.6799-7.1804-1.9735-10.3841,1.0327-3.0958,2.9048-6.2524,5.7704-9.5984,8.3759-3.2879,2.5603-9.5814,4.0628-13.5697-.5164-1.9594-2.2497-3.3917-5.152-4.394-7.9946-1.4-3.9706-1.7686-8.1234-.9527-12.4218.493-2.5974-.5389-5.5416.1717-8.028,1.3523-4.7317,1.9909-9.6739,4.9627-14.0224,1.4305-2.0933,1.9275-6.0361.9578-8.3498-4.4635-10.65-4.5176-21.6345-3.5479-32.7482.5845-6.6998,7.3028-12.5574,15.5305-9.9386,3.7763,1.2019,7.364,2.755,9.6363,6.4787,1.772,2.9039,5.1614,3.5517,9.4666,2.3369ZM201.181,70.498c.4946,1.413.7592,4.5434,1.8802,4.8878,2.5073.7705,3.8577-1.9753,5.3244-3.7647.0563-.0686.0893-.1581.1254-.2413,1.1693-2.6931,3.6059-2.3743,5.8242-2.3284,2.2784.0472,3.5869,1.5218,4.3507,3.5423.8211,2.1723.5157,4.1339-1.2765,5.6882-2.5003,2.1685-5.1493,3.5913-8.5869,1.5506-1.5421-.9154-3.4978-1.1343-5.2658-1.6693.1225,1.975-.0243,4.0142.4288,5.9102.7339,3.0711,4.9866,5.1916,7.7314,4.2726,5.3898-1.8046,10.001-4.8251,14.206-8.5937,1.7962-1.6097,2.6204-3.0187.6081-5.075-.7885-.8057-1.1174-2.0473-1.717-3.0538-3.7767-6.3402-8.7308-11.0886-16.4177-12.1917-2.1812-.313-5.331.9537-5.7386,2.6892-.5985,2.5485-.9256,5.1606-1.4765,8.3768ZM225.7556,25.6529c-1.2913-2.8773-2.5366-5.2488-3.4371-7.7445-1.7521-4.8561-3.8387-5.9998-8.6946-5.0031-3.1086.6381-5.28,2.5033-6.8988,4.8687-.9392,1.3724-3.6296,2.6617-2.1911,4.6049,1.7751,2.3979,3.7318.0514,5.4433-.8351,2.7579-1.4285,6.9572-.1128,8.567,2.8235,1.5217,2.7757.9003,4.0422-2.9644,6.0656-.2382.1246-.4341.3291-.6704.4585-3.21,1.7577-6.4261.7696-7.5947-2.6546-.6549-1.9189-1.5625-2.7895-3.4938-2.3054-2.0431.5121-1.9062,2.2539-1.7176,3.7545.3589,2.8567.7406,5.7334,1.4408,8.5193,1.1178,4.4471,2.829,5.0203,6.7116,3.0001,4.1902-2.1801,7.9573-5.3741,11.4427-8.6255,1.8403-1.7168,2.6881-4.4971,4.0569-6.9268Z"/>
  <path d="M161.0287,22.4197c-1.2396.081-2.2947.178-3.3518.2142-5.033.1722-9.3352-1.5561-12.9407-5.0437-2.3359-2.2595-2.0533-7.579.521-10.1391,4.265-4.2415,10.395-3.482,13.2236,1.7764.3567.6631-.1181,1.9914-.5594,2.8256-1.4596,2.7592-1.1793,3.5171,1.9274,3.6438,3.0044.1225,5.7947-.7615,7.2526-3.5974,2.2209-4.3199,12.4047-8.3095,17.6668-5.586,3.9734,2.0566,6.7701,5.3307,7.1606,10.1663.6036,7.4761.4193,14.9328-.6521,22.341-.3454,2.3885-1.1115,4.7902-2.1067,6.9956-2.1279,4.7152-1.8593,8.9351,1.1034,13.316,1.449,2.1426,1.7956,5.0171,2.7174,7.5325,1.3531,3.6926,1.4626,7.3633,1.2539,11.3322-.1491,2.8348.1936,5.8879.2314,8.8666.0511,4.0211-4.5715,13.3633-8.1832,14.791-3.7652,1.4885-7.6238.8767-10.8606-1.5707-3.0934-2.339-5.8828-5.077-8.8403-7.5991-4.3503-3.7097-5.2618-3.8596-10.6454-2.0487.1868,2.0883.4376,4.1262.5118,6.1704.0234.645-.2544,1.4686-.6902,1.9325-1.6047,1.7084-7.7167,1.6126-9.8329-.0558-2.2462-1.7708-3.1662-5.9884-1.3409-8.4037,2.6349-3.4865,4.9203-7.5531,10.0894-8.3213-1.1198-2.8433-3.6631-3.015-5.6626-3.0944-6.6964-.2657-13.4184-.3107-20.107.0273-1.2507.0632-2.5532,2.1687-3.5397,3.5415-1.0234,1.4241-1.3158,3.9022-2.5941,4.5037-2.6267,1.2359-5.6742,1.6934-8.5999,2.1132-.9714.1394-2.2971-.5915-3.1224-1.3121-3.3032-2.884-6.5497-5.8455-9.6197-8.9721-.5281-.5378-.4066-2.1371-.0585-3.044,2.7039-7.0447,9.424-7.7209,15.4123-8.8454,2.061-.387,4.9096,1.5958,6.9031,3.1365,2.4508,1.8942,5.0158,2.8703,7.9818,2.8154,7.1728-.1327,14.3587-.1756,21.5063-.7026,2.3524-.1734,4.6538-1.6139,6.8911-2.6614,6.5043-3.0456,12.9134-6.2853,17.5968-11.9865,4.1427-5.043,5.1845-8.5966-.6275-13.2725-3.0954-2.4904-5.745-5.6736-9.1254-7.6292-2.9482-1.7056-6.5956-2.7581-10.0102-2.9929-8.2942-.5703-16.6321-.531-24.9535-.67-4.8168-.0805-9.2843,1.036-13.3648,3.7908-3.0023,2.0269-7.967,1.1597-11.621-1.6674-1.1464-.8869-2.299-1.7657-3.4438-2.6546-3.2878-2.5527-3.4461-3.0336-1.4722-6.7354,1.2181-2.2843,2.3258-4.7569,4.0525-6.6163,5.1513-5.5473,11.3671-3.8857,15.6446,1.2539.6912.8305,1.199,1.8115,1.8181,2.7045,1.0871,1.5682,2.3937,2.4071,4.5077,2.4104,8.9696.0137,17.9386.2807,26.9086.3667,2.2278.0214,4.2989-.5297,5.0444-3.3459ZM164.089,78.6889c1.5309,1.6572,2.7533,3.4036,4.3698,4.631,2.4263,1.8424,5.0601,3.447,7.739,4.9084,1.7119.9339,3.6763,2.0387,5.5065,2.0026,5.287-.1044,8.4082-5.1956,6.701-10.9578-1.9862.827-3.9641,1.5993-5.8991,2.4672-3.6525,1.6384-8.9842-1.1269-9.4371-4.9326-.2915-2.4494,1.3117-5.2532,3.3998-5.9459,3.006-.9972,5.5078-.1954,7.1362,2.1069,1.482,2.0952,2.9072,4.3916,6.8478,4.1361-.1728-3.7872-.2304-7.4336-.5363-11.0589-.2874-3.4065-1.5878-5.1537-4.8095-4.948-3.2099.2049-6.7065,1.0566-9.4284,2.6995-5.7381,3.4633-8.4131,9.6168-11.5897,14.8914ZM190.2063,31.9232c-.0911-.0178-.1823-.0357-.2734-.0535.0334-.361.1054-.7233.0935-1.0828-.0477-1.4463.1094-3.0161-1.9172-3.3425-1.8283-.2945-2.7651.3642-3.3096,2.2516-.4086,1.4163-.9739,2.8443-3.0784,3.3072-3.3069.7274-5.6441-.7684-7.8095-2.6078-1.1569-.9828-2.0949-2.731-.4305-4.2205,1.4196-1.2704,2.9038-2.5754,4.5825-3.4241,2.352-1.1891,4.2083.5574,6.2376,1.49.9025.4147,2.2458-.1295,3.389-.2384-.2361-.7971-.4296-1.6104-.7235-2.3856-.1899-.5009-.5039-.9612-.8017-1.4137-2.4915-3.7854-5.9797-5.9976-10.5157-6.2403-1.0045-.0538-2.4297.4577-3.01,1.2106-1.4557,1.8886-2.601,4.0301-3.7587,6.1319-2.8569,5.1864-2.2551,9.7288,2.2154,13.6077,3.2735,2.8403,6.6956,5.6731,10.4792,7.7181,4.1377,2.2365,5.6917,1.4533,6.8658-2.2435.8679-2.7328,1.1965-5.6368,1.7653-8.4645Z"/>
  <path d="M34.0907,22.8326c.572,2.419,2.678,2.9023,4.8936,2.9343,7.0821.1023,14.1661.143,21.2488.1027,2.3379-.0133,4.7461-.0639,6.9835-.6379,1.3033-.3343,2.4066-1.662,3.4673-2.6808,1.8658-1.7919,3.4105-3.9952,5.481-5.4813,4.7132-3.3828,10.3724-.6712,12.9861,3.3078,1.56,2.3751,2.5999,5.1246,3.614,7.804.2844.7513-.035,2.2126-.622,2.7265-2.2406,1.9615-4.5438,3.9533-7.1227,5.4014-3.3865,1.9014-7.0372,2.237-10.503-.1378-4.1723-2.859-8.9345-3.1464-13.7782-3.3514-9.709-.4109-19.341-.0055-28.9439,1.6259-3.9275.6672-6.1328,3.6528-9.0334,5.7014-1.8398,1.2993-3.4477,2.9261-5.1656,4.3991-5.5531,4.7616-4.3041,7.7381-.8136,12.278,4.768,6.2014,11.8417,9.2644,18.5457,12.9311,6.473,3.5404,13.3256,2.7053,20.0773,3.2949,2.7747.2423,5.6037-.1587,8.4089-.2377,2.7043-.0762,5.1282-.7684,7.2061-2.6483,3.4734-3.1426,7.1741-4.2697,11.9442-2.4001,4.4803,1.756,8.9987,3.0489,10.7965,8.1253.2804.7918.383,1.9786-.0143,2.625-2.7606,4.491-6.7941,7.6872-11.3222,10.2069-3.1641,1.7608-10.7996-1.3666-12.1501-4.7418-2.1237-5.3076-2.1237-5.2739-7.9325-5.2718-4.7116.0017-9.4258-.2069-14.1342-.1062-4.3016.092-6.1542.9253-7.9571,3.2112,4.3803.7638,6.6965,4.025,9.1834,7.0923,2.5066,3.0917,2.5523,6.7177.0809,9.3679-1.7114,1.8352-7.6509,2.456-9.7752.7964-1.9328-1.5099-1.475-3.7749-1.1548-5.8414.1182-.7627.6101-1.4675.9277-2.1897-4.1637-2.2347-6.8916-1.9958-10.2422.8854-3.2225,2.7711-6.2993,5.7247-9.644,8.3372-4.2323,3.3056-9.9056,3.3158-13.3561-.3751-2.0841-2.2292-3.5926-5.2348-4.6132-8.1526-1.037-2.9645-2.0832-6.4413-1.4801-9.3532,1.1521-5.5626-.5815-11.3506,2.097-16.8263,1.3921-2.846,2.4353-5.8649,3.9345-8.7429,1.2393-2.3791,1.9204-5.5244.5022-8.4869-2.3358-4.8791-2.7819-10.139-3.5406-15.4434-.8504-5.9459-.4713-11.7231.3772-17.4488,1.1636-7.8521,8.2388-11.3124,15.1766-9.2169,3.8832,1.1729,7.7777,2.6854,9.7726,6.7377,1.0977,2.23,6.0567,3.3519,8.4866,2.449.4044-.1502.7603-1.4633.556-2.0285-.6567-1.8165-2.315-3.1186-.0475-5.3983,2.7538-2.7686,5.4974-4.1376,9.1471-2.7163,4.3155,1.6806,6.6202,6.5994,4.5638,10.6573-1.4894,2.9391-4.3017,5.1461-7.6671,5.8618-3.0491.6484-6.2212.7187-9.4449,1.0549ZM5.3515,77.1883c3.2214.062,4.8079-2.123,6.0908-4.3652,1.5262-2.6674,3.8442-2.2677,6.1657-2.0964,2.4936.184,3.5186,1.9932,4.1539,4.0814.6921,2.275-.1354,4.1648-1.9221,5.5279-2.4929,1.9018-5.089,2.8442-8.2231,1.0011-1.5218-.8948-3.4815-1.0453-5.2429-1.5327.1122,1.9338.0183,3.9081.3873,5.7916.4926,2.5146,4.9305,5.3472,7.1654,4.5856,6.6629-2.2706,12.4104-5.9845,17.1894-11.2725-.7175-1.1755-1.4056-2.231-2.023-3.3263-3.9282-6.9687-8.4087-13.1814-17.2114-14.4526-2.7295-.3942-5.8962.6319-6.4375,2.9365-.9982,4.2493-1.5722,8.5336-.0924,13.1217ZM5.0569,31.6772c-.1022.0218-.2045.0435-.3067.0653.6296,2.9947,1.1375,6.022,1.9282,8.9735.6049,2.258,2.0367,3.7038,4.6196,2.6512,5.9657-2.4311,11.0553-6.1064,14.9161-11.2767,1.8794-2.5169,2.3856-5.4096.9688-8.4538-.8668-1.8626-1.2736-4.0166-2.4421-5.6406-1.281-1.7805-2.2489-4.4356-5.227-4.0962-3.5718.4071-6.9124,1.4087-9.2005,4.488-.8061,1.0848-1.6338,2.1624-2.3283,3.3175-.3855.6412-.5165,1.4354-.7622,2.1606,1.0605.2461,2.1224.6758,3.181.6678.6113-.0045,1.2019-.7418,1.8283-1.1034,2.7829-1.6061,6.8925-.9391,8.7552,1.6061.6856.9368,1.3397,2.2972,1.198,3.356-.3025,2.2596-4.1085,4.7146-6.8516,4.8392-2.7985.1271-4.7002-1.1152-5.2792-3.8536-.4244-2.0075-1.8176-2.3799-3.1887-1.8127-.8686.3593-1.35,1.7686-1.8774,2.7739-.1786.3403.0344.886.0685,1.3379Z"/>
  <path d="M632.2497,11.3778c-.0952-.5008-.1537-1.0283-.299-1.5305-.4051-1.3996-1.5881-3.171-1.1103-4.0981.8508-1.6509,2.5139-3.1014,4.1681-4.0728,3.0309-1.7799,7.5461-.3676,9.6087,2.6454,2.8103,4.1051,1.9378,7.3895-1.723,10.8241-3.7357,3.505-8.043,3.6314-12.5835,3.5927-.5991-.0051-1.1983-.0007-1.9822-.0007.5192,2.3302,2.1627,3.1595,4.004,3.1617,9.7301.0118,19.4647-.004,29.1857-.3495,1.2903-.0458,2.5253-2.0107,3.7623-3.1133,2.1871-1.9496,4.0851-4.4294,6.5953-5.763,3.8886-2.0658,9.5911.1139,11.7055,4.0089,1.3255,2.442,2.4827,4.9986,3.4342,7.6064.2958.8108.0108,2.3352-.5955,2.8826-2.1395,1.9312-4.3957,3.8127-6.8656,5.2787-3.2681,1.9399-6.9622,2.4426-10.2565.2331-3.6431-2.4434-7.6355-3.5196-11.8168-3.487-9.2107.0718-18.424.3951-27.6249.8476-3.9454.194-7.5378,1.5262-10.4919,4.4908-2.3522,2.3605-5.1231,4.2996-7.6639,6.4775-5.155,4.4186-4.064,7.5643-.498,12.1302,5.0025,6.4052,12.3213,9.527,19.3028,13.2293,6.1271,3.2492,12.5322,2.5015,18.899,2.708,3.9439.1279,7.9519-.0753,11.8434-.6878,1.8921-.2978,3.7305-1.6829,5.3336-2.9136,3.1456-2.415,6.3443-3.2954,10.1106-1.5542,1.6359.7563,3.4006,1.2743,5.1503,1.736,3.8338,1.0113,5.0285,4.4414,6.7751,7.33.2474.4092-.1478,1.407-.5127,1.9542-2.8115,4.2162-6.6695,7.3484-10.9606,9.8924-3.3438,1.9825-11.2336-1.1636-12.5672-4.7814-1.821-4.9398-2.2589-5.207-7.4975-5.194-4.7188.0118-9.4395-.1556-14.1562-.0713-2.9545.0528-5.8833.4801-8.6085,3.0822,4.5712,1.0424,6.9893,4.1631,9.4406,7.2582,2.4649,3.1123,2.588,6.4566.2901,9.1616-1.5484,1.8227-7.186,2.6463-9.5056,1.3885-1.5236-.8261-2.5626-4.5604-1.5165-6.5497,1.0505-1.9979.218-2.3952-1.5367-2.8907-3.1144-.8795-5.6176-.1718-7.9674,1.9894-3.1185,2.8683-6.2379,5.7763-9.6399,8.2833-2.9164,2.149-6.3539,3.0637-10.0218,1.7801-3.0336-1.0617-4.3562-3.6996-6.0651-6.156-2.942-4.2292-2.2155-9.2426-3.5952-13.7756,2.1659-2.9373-.0656-6.1198.5116-9.1154.4749-2.4638,1.4283-4.8333,1.944-7.2918.6767-3.226,2.2901-5.9145,3.8566-8.7668,1.5229-2.773,1.7787-6.257.3195-9.5179-4.0354-9.0169-4.1107-18.521-3.4204-28.1324.2674-3.7224.6802-7.1053,3.5662-10.0945,3.3675-3.488,7.2801-4.2117,11.4325-3.1401,3.9682,1.024,7.8802,2.5462,10.2664,6.514,1.7991,2.9915,5.5965,3.8214,9.5763,2.5613ZM625.396,75.2659c-1.1882-2.0787-2.2069-3.9894-3.3447-5.8263-2.855-4.6084-6.1419-8.8136-11.4081-10.8687-1.6628-.6489-3.5232-1.5541-5.1529-1.3286-1.9358.2678-5.0283,1.3177-5.3268,2.5736-.9203,3.8705-.8473,7.998-.956,12.0312-.0497,1.8402,1.4244,2.1697,2.609,1.2572,1.5353-1.1826,2.9601-2.6462,4.0374-4.2535,1.6634-2.4818,3.9387-2.1688,6.2616-1.8266,2.5289.3725,3.6216,2.2672,4.1009,4.4947.4923,2.2872-.5947,3.9763-2.3852,5.3735-2.9105,2.2711-5.736,1.9028-8.8205.2769-1.3-.6852-2.9944-.6221-4.5096-.8992.0944,1.6776-.0957,3.4341.3434,5.016.8697,3.1329,5.1994,5.8227,7.6798,5.0151,6.5726-2.1401,12.0554-5.9527,16.8717-11.0355ZM601.0374,19.2754c1.2928,1.9603,2.6071,2.4491,4.4375,1.086,1.6862-1.2558,3.486-2.1766,5.7631-1.5377,2.687.7539,5.6907,3.8204,5.3975,5.7078-.3188,2.0515-3.9885,4.7503-6.8805,5.0223-2.7227.2561-4.6218-.9697-5.2717-3.5675-.4664-1.8643-1.297-2.6784-3.1952-2.3507-1.9731.3406-2.1159,1.8752-1.943,3.3268.3844,3.229.7689,6.4815,1.5226,9.6364.7214,3.0198,2.0652,3.9833,4.9456,2.8612,6.0462-2.3555,11.2075-6.1244,15.0047-11.5173,1.8272-2.5952,1.8861-5.451.759-8.3029-.7937-2.0085-1.5426-4.1397-2.8221-5.8298-2.8442-3.7574-2.7649-4.571-7.5591-3.0395-2.2876.7308-4.4209,2.2608-6.3142,3.8079-1.4906,1.2179-2.5064,3.0167-3.8442,4.6972Z"/>
  <path d="M748.799,14.2902c4.4813,1.5569,8.1059.6681,10.1809-2.7903,2.6945-4.4911,11.5751-7.6013,16.6421-6.0695,4.0456,1.2231,7.7519,6.0441,8.1997,10.5776.7504,7.5959.316,15.1503-.6839,22.6757-.27,2.0328-.7599,4.2196-1.8131,5.9261-2.0229,3.2778-1.5996,6.6485-1.1791,10.0866.0946.7739.4174,1.6414.9167,2.2249,3.6736,4.2932,4.0567,9.8765,5.446,14.9311,1.0125,3.6838.2171,7.8936.0588,11.8621-.1832,4.5912-1.591,8.725-3.8836,12.8311-3.708,6.6411-10.6653,6.3715-15.0047,3.2829-3.3721-2.4001-6.5402-5.1665-9.4502-8.1142-3.296-3.3386-6.8118-3.1404-10.3079-1.8469.1113,2.0752.2357,3.9068.3018,5.7405.0981,2.7231-1.5166,3.8447-3.9493,3.6579-2.121-.1629-4.4876-.2705-6.2483-1.2745-2.927-1.669-3.2451-6.2973-.9904-9.1678,2.5628-3.2625,4.9742-6.7457,9.5495-7.6455.0248-.2998.0497-.5996.0745-.8994-1.8169-.7245-3.6126-2.0037-5.4546-2.0745-6.7913-.261-13.6014-.2536-20.397-.0702-2.8099.0758-2.9797,3.0056-4.0894,4.8676-.748,1.2554-1.3805,3.1794-2.4667,3.519-3.0389.95-6.7995,2.5023-9.3313,1.4799-3.7735-1.5239-6.858-4.9198-9.9832-7.7935-1.1245-1.0341-2.4823-3.2925-2.0572-4.242,1.0599-2.3675,2.6932-4.9181,4.8146-6.2616,2.7633-1.7501,6.1684-2.594,9.393-3.4805,3.4594-.9511,6.2718,1.0103,8.6059,3.1182,2.3698,2.1402,5.0553,2.8717,7.9624,2.8404,7.347-.0789,14.7048-.1979,22.0286-.7182,2.1733-.1544,4.2984-1.5947,6.3584-2.6208,6.0791-3.0278,12.3031-5.8947,16.8338-11.2123,2.4859-2.9177,5.4867-5.8505,3.3554-10.2372-.6454-1.3284-1.8021-2.4821-2.9278-3.4885-2.4981-2.2331-5.2743-4.1702-7.6603-6.51-2.768-2.7146-6.1029-3.8622-9.7686-4.2413-10.1051-1.0451-20.2449-2.0016-30.3728-.659-3.0469.4038-6.139,1.586-8.8601,3.0585-3.787,2.0492-8.5283,1.9763-12.4642-.9614-.9437-.7043-1.807-1.5173-2.7582-2.2104-4.4155-3.217-4.4767-3.2353-2.0971-8.0454.992-2.0053,1.9912-4.1248,3.4732-5.7491,5.4198-5.9408,12.3094-4.3598,15.3546.6809,3.3697,5.578,7.8708,5.8168,12.9744,5.8775,6.8289.0812,13.6607-.0182,20.4905-.0984,2.2686-.0267,4.5706-.1736,5.279-2.8616-3.4171-.3628-6.917-.1243-9.9574-1.193-5.2201-1.8348-10.4619-6.6236-6.8735-12.5504,1.6985-2.8054,4.2033-4.3823,7.5462-4.4182,3.3827-.0363,4.9724,2.6533,6.8753,4.7557.3288.3633.0024,1.4695-.2339,2.1598-.3929,1.1476-.958,2.2362-1.4515,3.3516ZM755.873,78.3729c4.3337,4.3875,9.0485,7.9526,14.7737,10.2701,4.1804,1.6922,9.5464-.0817,10.1068-5.6393.1301-1.2909-.1326-2.6214-.2145-3.9336-1.0931.25-2.1964.4635-3.2757.7631-.6948.1928-1.376.4675-2.0263.7821-3.3492,1.62-5.5684,1.4016-8.2351-.9866-1.7428-1.561-2.6402-3.4776-1.7774-5.8427.7165-1.9637,1.8354-3.6194,4.157-3.7647,2.3389-.1464,4.688-.4098,6.1979,2.2077.7885,1.3667,2.0134,2.569,3.2674,3.5593,1.8871,1.4903,3.112,1.0544,3.2203-1.2975.1479-3.214.0207-6.4781-.3882-9.6696-.3934-3.0703-2.0823-4.8328-4.9722-4.4975-3.1279.3628-6.4729,1.2362-9.1206,2.8655-5.6926,3.503-8.4395,9.5594-11.713,15.1839ZM782.3055,29.4329c-.614-.713-1.2674-2.1189-2.3183-2.545-1.7013-.6898-2.7437.3046-3.2285,2.1909-.2889,1.1238-1.1221,2.4298-2.0937,2.9915-2.2689,1.312-7.93-.4063-9.1235-2.7684-.5123-1.0139-.6013-2.6366-.155-3.668,1.5393-3.5582,5.8451-4.7683,9.2625-2.8357.7071.3999,1.3468,1.1604,2.0688,1.231.892.0872,1.9205-.2254,2.7156-.6743.285-.1609.3385-1.441.0252-1.8333-1.6796-2.1041-3.3234-4.298-5.3253-6.0706-3.8092-3.3731-8.8461-2.8254-11.5499,1.429-1.5894,2.5007-2.7066,5.4423-3.366,8.3381-.376,1.6511.1745,3.8434,1.0352,5.3864,3.18,5.7014,8.7882,8.7921,14.1825,11.8523,3.1632,1.7944,5.1206.5483,5.9831-3.0049.7424-3.0581,1.1802-6.19,1.8874-10.0189Z"/>
  <path d="M943.7531,81.5802c-1.8903-.6344-3.7634-1.7481-5.674-1.8165-6.7008-.2399-13.4148-.1585-20.1232-.1159-2.4455.0155-2.7309,2.3444-3.6836,3.8781-.8841,1.4231-1.2487,3.7542-2.4526,4.275-2.747,1.1884-5.8671,1.5161-8.8382,2.1818-.1684.0377-.3838.0207-.5375-.0534-5.2407-2.5248-9.4752-6.1984-12.5813-11.1288-.2111-.3351-.3285-1.0088-.1386-1.2736,1.8099-2.5243,2.7047-5.8554,6.1506-6.9599,2.5902-.8302,5.1431-1.7758,7.7226-2.6403,3.751-1.257,6.6003.7647,9.1347,2.9437,2.7802,2.3905,5.8719,2.8706,9.3078,2.8052,2.8359-.054,5.6814.301,8.5144.2124,4.2698-.1336,8.5637-.2724,12.7835-.8643,1.8444-.2588,3.511-1.6864,5.2926-2.5093,6.267-2.8946,12.5504-5.8,17.1286-11.2127,1.6063-1.8991,3.3709-3.9884,3.9994-6.2822.4576-1.6701-.2296-4.4205-1.4527-5.6413-3.7656-3.7583-7.6698-7.6495-12.226-10.2553-3.4201-1.956-7.8968-2.5493-11.9605-2.7937-8.1176-.4883-16.2877-.6252-24.4091-.278-3.3723.1441-6.8853,1.4836-9.9591,3.0267-4.149,2.0828-8.445,2.0624-12.6647-1.0652-1.3102-.9712-2.4877-2.1557-3.8861-2.9662-2.4701-1.4316-2.7711-3.3532-1.52-5.6341,1.4137-2.5772,2.609-5.4166,4.5634-7.5273,5.2625-5.6838,11.3132-3.5893,15.4616,1.1451.4729.5397.9238,1.1322,1.2371,1.7725,1.415,2.8922,3.6907,3.6708,6.8512,3.6284,8.3436-.1117,16.692.1689,25.0389.2175,2.2123.0129,4.3195-.4245,5.1807-2.8843-3.3341-.362-6.652-.2385-9.6419-1.1686-3.7823-1.1767-7.213-3.2876-8.1474-7.7448-.6584-3.1411,1.3086-6.6945,4.8018-8.5959,2.6168-1.4243,5.9705-.5788,8.3935,1.647,2.0086,1.8451,3.4819,3.4544,1.1805,6.0454-.3773.4248-.3896,1.1738-.5651,1.7551,3.409,1.7521,7.6173.9265,9.5997-2.0883,2.9447-4.4783,7.3155-6.3944,12.325-6.8564,7.3927-.6819,12.2506,4.2552,12.964,11.6787.6807,7.0833.1852,14.0601-.5552,21.0433-.2715,2.5605-1.2134,5.1131-2.2101,7.52-1.9356,4.6741-1.9303,8.879,1.1443,13.2452,1.5291,2.1715,1.8419,5.1839,2.7848,7.7869,1.3331,3.6799,1.6994,7.3031,1.0633,11.2829-.3526,2.2062.4511,4.684.413,7.1758-.071,4.6304-2.1544,8.1701-4.0497,12.0301-1.7014,3.465-6.504,5.4151-9.7343,4.8188-3.7726-.6965-6.6039-2.8526-9.3497-5.2306-1.7778-1.5396-3.5215-3.1337-5.1453-4.8325-3.1811-3.3281-6.7567-3.3149-10.2268-1.7401.1453,2.2676.349,4.3003.3627,6.3343.0043.639-.3452,1.4391-.8027,1.8942-1.7158,1.707-7.7336,1.4619-9.794-.3056-2.4252-2.0806-2.8684-6.2549-.8148-8.8791,2.6022-3.3255,4.9859-6.9485,9.676-7.8499.0229-.3833.0458-.7666.0687-1.1499ZM952.7926,79.8189c4.5678,4.4794,9.2578,8.3448,15.2001,10.3485,5.1359,1.7318,9.5404-.3935,9.8147-5.6945.067-1.2942-.1707-2.6043-.2683-3.907-1.0979.2828-2.2068.5297-3.2897.8613-.6849.2097-1.3599.4928-1.99.834-3.2868,1.7801-5.3786,1.0975-8.5665-1.5838-1.673-1.4071-2.1189-3.2346-1.2867-5.3909.7755-2.0096,1.878-3.547,4.1813-3.7226,2.2583-.1721,4.4575-.3751,5.9703,2.0632.9248,1.4906,2.2613,2.815,3.6557,3.903,1.828,1.4265,2.8808,1.0027,2.9185-1.2714.0606-3.6688-.0935-7.3647-.5072-11.0095-.2702-2.3804-3.7416-4.0417-6.173-3.2921-.774.2386-1.5178.7522-2.2911.7866-4.9348.2193-7.9822,3.4774-10.6973,6.9183-2.4418,3.0946-4.3656,6.5977-6.6707,10.1567ZM977.3868,23.794c-1.9787-2.2255-3.7723-4.6102-5.934-6.5938-3.8897-3.5691-9.189-2.9116-11.9713,1.345-.7639,1.1686-1.0984,2.6086-1.7666,3.8506-2.4631,4.5786-2.285,8.9379,1.4602,12.428,3.5548,3.3127,7.5673,6.2013,11.6513,8.857,2.9549,1.9215,5.5373,1.252,6.2696-1.4444,1.0067-3.7059,1.5094-7.573,1.8885-11.4047.0761-.7698-1.2147-2.0755-2.1482-2.4454-1.2277-.4865-2.3268.0569-2.8325,1.6817-.4076,1.3097-1.1472,2.9239-2.2301,3.5372-2.9415,1.666-8.3139-.5231-9.6659-3.7066-.2636-.6205-.2588-1.5633.0222-2.1732,2.0191-4.384,6.4403-5.5799,10.6897-2.7576,2.029,1.3476,3.2709.9023,4.5672-1.1737Z"/>
  <path d="M556.4409,18.7946c-1.9329,0-3.4634-.031-4.9923.0059-4.5304.1092-8.1645-1.8896-11.3566-4.858-2.5327-2.3551-2.1163-8.1277.7004-10.4809,5.6004-4.6789,9.2811-2.496,12.7818,1.8881.4061.5086.029,1.7254-.1349,2.5854-.2271,1.1918-.5961,2.3565-.9044,3.5328,1.1234.1616,2.2533.494,3.3688.4509,2.7096-.1049,4.9052-1.1472,6.4958-3.5422,3.1976-4.815,11.5138-7.6859,16.877-5.9894,3.7385,1.1825,7.5893,6.3404,7.8377,10.5486.1645,2.7881.5824,5.6044.3525,8.3637-.5126,6.1552-1.3348,12.2857-2.0995,18.4178-.1088.8726-.5301,1.7317-.9258,2.5388-2.2265,4.5408-2.0439,8.7746.9555,13.0355,1.18,1.6763,1.5089,3.9559,2.2041,5.9681,1.5576,4.5086,3.3027,8.9983,1.626,13.8867,1.8397,2.723.346,5.6102.3475,8.4121.0008,1.4803-.2533,3.0927-.8773,4.4171-1.9988,4.2423-3.3693,9.0678-8.7758,10.535-3.4569.9382-6.5899-.0672-9.2254-2.0206-3.5419-2.625-6.8009-5.6499-10.0511-8.6445-2.6471-2.439-5.5539-2.3317-8.5932-1.2299-.4223.1531-.728,1.1687-.7453,1.7945-.05,1.8036.15,3.6147.0856,5.417-.0192.5344-.48,1.1808-.9256,1.55-1.7778,1.4727-7.7932.9867-9.5713-.7022-2.3789-2.2596-2.6183-6.186-.5447-8.9325,3.6561-4.8424,5.1399-6.0836,9.4847-7.8734-1.1163-2.3549-3.5192-2.6901-5.451-2.7731-6.7018-.288-13.4304-.3461-20.1264-.0253-1.2669.0607-2.9616,2.0483-3.5316,3.5085-1.1469,2.9379-2.3527,5.2072-5.8289,6.002-4.449,1.0172-8.339.6953-11.72-2.6116-.8348-.8165-1.756-1.5582-2.7023-2.2451-3.0763-2.233-3.4822-5.403-2.9056-8.7595.5168-3.0085,2.7247-4.5452,5.5145-5.3872,1.3879-.4189,2.8225-.7836,4.1053-1.4316,4.7075-2.3778,8.4484-.6154,12.2273,2.2927,1.7012,1.3092,4.0024,2.5342,6.053,2.5704,7.5599.1334,15.1422-.0466,22.6864-.5508,2.3639-.158,4.689-1.5922,6.938-2.6429,6.6644-3.1138,13.2337-6.4193,17.9844-12.3153,4.0582-5.0366,4.8259-8.3217-.4175-12.7127-3.1928-2.6738-6.1989-5.6091-9.6002-7.9806-1.9281-1.3443-4.4295-2.2932-6.768-2.5494-10.8865-1.1929-21.8218-2.3265-32.7459-.6201-2.6879.4199-5.3843,1.5609-7.7792,2.9018-3.7733,2.1127-8.7718,1.8235-12.6185-1.2487-1.2742-1.0176-2.4929-2.119-3.8439-3.0222-1.5449-1.0327-2.2419-2.3453-1.6786-4.118,1.3482-4.2427,2.992-8.3927,7.0142-10.8342,5.1518-3.1272,9.8425-.9021,13.3793,3.2159.6427.7483,1.0881,1.6638,1.6427,2.4901,1.2331,1.8374,2.7679,2.7916,5.1776,2.7749,8.7303-.0603,17.4622.1137,26.1935.1957,2.2905.0215,4.2559-.5244,5.4076-3.1979ZM559.0606,75.1489c4.5411,4.6412,9.4601,8.2535,15.3761,10.595,3.5833,1.4182,9.0117-.3899,9.5538-5.0884.171-1.482.0224-3.0008.02-4.5027-1.3593.2771-2.7232.5339-4.0752.8428-.4347.0994-.8716.2824-1.2504.5187-2.7446,1.7118-5.2942,1.1919-7.7989-.564-1.8663-1.3083-2.9592-3.0068-2.5161-5.3045.4303-2.2311,1.4755-4.1783,3.9862-4.5892,2.398-.3926,4.8163-.7882,6.4401,1.9231.8116,1.3551,1.957,2.6085,3.2055,3.5824,2.215,1.7277,3.3216,1.3092,3.4458-1.4019.1392-3.0389-.0122-6.1188-.3568-9.1445-.3644-3.1999-1.901-4.65-5.036-4.8721-1.1739-.0832-2.3948.8288-3.6043.8572-4.6585.1095-7.5246,3.3804-10.1845,6.3082-2.8648,3.1532-4.8102,7.1414-7.2051,10.84ZM583.4816,19.3675c-.7969-1.1556-1.474-2.206-2.2193-3.2057-2.546-3.4155-5.8027-5.7529-10.1709-5.8924-1.1607-.0371-2.746.563-3.447,1.4286-1.4487,1.789-2.4054,3.9707-3.6158,5.9596-2.5168,4.1357-2.5831,8.3793.8747,11.731,3.7339,3.6194,7.9257,6.8588,12.2776,9.7163,2.9391,1.9299,5.4025,1.1004,6.1684-1.7379,1.0035-3.7188,1.4284-7.615,1.7976-11.4641.0661-.6889-1.2153-1.8787-2.1044-2.199-1.2814-.4616-2.4133.0423-2.7624,1.7236-.533,2.5679-2.0882,4.1386-4.861,4.1753-2.6738.0353-6.4419-2.3248-7.1784-4.5615-.173-.5256-.1695-1.2231.0256-1.7383,1.7014-4.495,6.296-5.9064,10.5862-3.0922,2.0471,1.3429,3.4151,1.1844,4.6291-.8432Z"/>
  <path d="M828.6645,91.8066c-4.3268-1.9867-7.8803-1.5862-11.182,1.6489-2.8349,2.7777-5.8568,5.4006-9.0167,7.8015-4.1672,3.1662-9.6023,3.1451-13.168-.4752-2.0722-2.1039-3.567-5.0533-4.5379-7.8902-1.0754-3.142-2.2716-6.8111-1.6075-9.8566,1.2248-5.6159-.4986-11.4708,2.2878-17.0194,1.3273-2.6433,2.4719-5.4654,3.7606-8.1985,1.2356-2.6206,1.8497-5.7829.4306-8.9016-1.7978-3.9509-2.6339-8.1297-3.257-12.4851-.9573-6.6923-.8991-13.3124.0817-19.8703,1.2649-8.4577,9.0833-11.7768,16.3697-9.1128,3.5948,1.3143,6.8524,3.0581,8.9715,6.6144,1.5217,2.5538,5.3274,3.1067,9.2252,1.8543-.1824-.6542-.3818-1.3154-.5502-1.9843-.324-1.2875-1.3229-3.1144-.8159-3.7705,1.6001-2.0708,3.2547-4.2817,6.372-4.5836,4.7332-.4584,11.4651,5.1523,8.0901,11.248-1.4096,2.5459-4.5804,4.6242-7.4132,5.7339-2.8857,1.1304-6.3402.8088-9.6306,1.1313.5633,2.2856,2.4965,2.8869,4.6736,2.9221,4.5841.0742,9.1705.0691,13.7554.029,4.3034-.0376,8.6071-.257,12.9087-.2117,2.448.0257,3.9155-1.1172,5.3628-2.9494,1.6456-2.0832,3.5083-4.1253,5.6542-5.6562,4.6405-3.3107,11.0241-.0498,13.1433,4.1737,1.1637,2.3192,2.2601,4.6785,3.2392,7.0798.2624.6435.2837,1.9413-.0942,2.2033-3.5236,2.4422-6.9881,5.0755-10.8203,6.9289-2.5687,1.2423-5.3675.168-7.9521-1.4018-2.1183-1.2866-4.6139-2.36-7.047-2.6511-11.2885-1.35-22.5946-.8875-33.7731,1.0319-2.7562.4732-5.3996,2.2787-7.8122,3.8938-2.6196,1.7537-4.9088,4.0005-7.3433,6.0307-5.6822,4.7388-4.9541,7.8148-.7583,13.0585,4.7257,5.9059,11.483,8.8579,17.9426,12.3703,4.9149,2.6725,9.9087,3.0497,15.1965,2.9808,5.0307-.0656,10.0784.2827,15.0884-.032,1.9047-.1196,3.9738-1.2641,5.5342-2.4924,3.6887-2.9037,7.3775-4.5014,12.0022-2.2331,2.0226.992,4.6,1.1602,6.2537,2.5195,2.0746,1.7052,3.5209,4.2071,5.0766,6.476.2377.3467-.2136,1.4613-.6552,1.9287-2.4104,2.5505-4.9425,4.9856-7.3858,7.506-3.5301,3.6414-7.6554,2.6609-11.837,1.6647-2.3737-.5655-3.5372-2.0737-4.3195-4.3074-1.713-4.8905-2.0078-4.9853-7.0078-4.9518-5.6154.0377-11.2396-.1266-16.8417.1574-2.0468.1038-4.0411,1.2422-6.0332,2.4156,4.4653,1.36,6.8747,4.6688,9.4045,7.8265,2.362,2.9482,2.3264,6.5593-.0718,9.1542-1.7359,1.8782-8.0649,2.7333-9.632.7665-1.1206-1.4064-1.0863-3.815-1.313-5.8053-.0765-.6717.628-1.4323,1.0516-2.3096ZM795.8014,80.2025c-.3196.1687-.6392.3374-.9588.506.335,2.0741.5517,4.1764,1.0358,6.215.573,2.4126,5.3263,4.9784,7.4865,3.9041,4.0136-1.996,8.1008-3.9612,11.775-6.4938,5.1969-3.5823,5.0468-3.7963,2.0232-9.1789-.2214-.3941-.3569-.838-.5908-1.2232-2.7841-4.588-5.9589-8.7961-11.2555-10.7164-1.6791-.6087-3.4432-1.0098-5.1939-1.3873-2.0381-.4395-5.3951,1.1162-5.5559,2.8166-.379,4.0088-.5157,8.0467-.5864,12.0757-.031,1.7716,1.3008,1.9801,2.4115,1.095,1.5271-1.2171,2.9884-2.6189,4.133-4.1924,2.3783-3.2694,7.976-2.9838,9.7403.6782,1.1162,2.3169,1.0759,4.5191-.9214,6.4766-2.407,2.359-5.1259,3.0233-7.8761,1.8222-1.8795-.8208-3.7771-1.5999-5.6665-2.3976ZM795.6648,23.8861c1.3873,1.9585,2.5966,2.3885,4.4959,1.1136,3.4349-2.3056,6.127-2.2583,9.0428.3303,1.0582.9395,1.9693,2.7015,1.9346,4.0624-.0535,2.0922-3.8919,4.4217-6.6568,4.7096-2.8725.2991-4.6966-.9879-5.3358-3.674-.4415-1.8553-1.4656-2.3066-3.1259-2.1323-1.8827.1976-2.158,1.6527-1.9882,2.9921.4521,3.5657.9606,7.1437,1.7942,10.6338.4701,1.968,1.8764,3.3989,4.2655,2.4325,6.0607-2.4515,11.1945-6.1871,15.1818-11.3812,2.4368-3.1743,2.0746-6.572.3649-9.9635-.487-.966-1.058-1.9082-1.4003-2.9253-1.4642-4.3512-4.0912-5.9721-8.4099-4.6981-1.8286.5394-3.6925,1.4861-5.1185,2.7308-1.8584,1.6221-3.2975,3.7245-5.0444,5.7694Z"/>
  <path d="M355.7308,18.0241c-2.6242-.1296-4.8662-.2836-7.1107-.3416-3.8447-.0993-6.5304-2.472-9.148-4.7936-2.6008-2.3067-2.1201-7.7915.6776-10.3068,3.6251-3.2592,7.9482-3.4492,10.6367-.4779.4228.4672.8554.9399,1.3496,1.3253,1.4348,1.119,1.9302,2.2302.5971,3.8796-.6285.7776-.7371,1.9753-1.0727,2.9572,3.763,1.5655,7.6437.6112,9.7434-2.3034,3.8635-5.3629,9.2394-7.3323,15.6007-6.7017,4.8531.4811,9.6164,6.1539,9.5847,10.9882-.0069,1.0562.0667,2.1155.1537,3.1693.6737,8.1625.0478,16.2125-2.1276,24.1189-.2614.95-.8291,1.8114-1.1842,2.7407-1.5833,4.1431-1.5782,8.0076,1.1693,11.8692,1.3436,1.8884,1.9874,4.3688,2.5786,6.6758.8564,3.3426,1.7033,6.7468,1.9587,10.1691.3073,4.1173.4504,8.3517-.1711,12.4074-.8093,5.2819-2.9142,10.1899-7.5106,13.5004-2.4133,1.7382-8.2319,1.2005-11.3237-1.243-3.3934-2.6818-6.556-5.6545-9.8367-8.4801-3.3163-2.8562-5.8918-3.0636-9.6976-.9399.2001,1.6094.6622,3.1627.5275,4.6625-.3576,3.9829-2.2594,5.1077-6.8644,4.3642-4.0232-.6495-6.6525-3.5-5.8147-6.7139,1.3818-5.301,4.7668-8.9745,9.8689-11.0328.2443-.0986.4823-.2176.7091-.351.0628-.0369.0749-.1602.1708-.3868-1.173-2.1732-3.4699-2.4837-5.5196-2.5509-6.6042-.2167-13.2182-.1993-19.8277-.159-2.7923.017-3.5889,2.5047-4.0623,4.4493-.8631,3.5456-3.2789,4.3338-6.3255,5.2801-6.9983,2.1737-10.5902-2.8043-14.9181-6.4005-.2056-.1709-.3801-.3991-.5149-.632-.9207-1.5903-2.9702-3.7242-2.521-4.6833,1.2854-2.7441,2.5916-5.8999,5.9441-7.0626,2.5665-.8901,5.1319-1.7865,7.72-2.6103,3.9415-1.2546,6.625,1.2347,9.6293,3.1021,1.9934,1.2389,4.3652,2.5047,6.6097,2.5852,6.7771.243,13.5943.1789,20.3552-.3182,2.9132-.2142,5.8208-1.574,8.5663-2.786,6.8165-3.0093,13.4076-6.4628,18.1929-12.4268,1.3304-1.6581,2.8142-3.5935,3.1021-5.5659.2481-1.6996-.6003-4.1482-1.8445-5.3665-3.8027-3.7234-7.8574-7.2529-12.1729-10.3595-1.8522-1.3333-4.5507-1.7585-6.931-2.0449-10.092-1.2139-20.2401-1.9789-30.3644-.6856-3.1253.3992-6.2907,1.6238-9.0959,3.1139-3.9067,2.0752-9.021,1.7625-12.8673-1.4743-.8316-.6998-1.6451-1.4301-2.5322-2.0536-4.02-2.8261-4.0851-2.8408-1.9369-7.3928,1.8449-3.9092,3.6297-7.895,8.3764-9.2585,3.912-1.1237,8.6058.5588,11.12,4.1454.727,1.037,1.2883,2.304,2.2528,3.0326,1.2754.9634,2.8551,2.0813,4.3344,2.1259,8.8737.2678,17.756.2738,26.6357.3038,2.228.0075,4.3222-.4329,5.1311-3.062ZM358.4827,74.2633c4.4891,4.5642,9.3083,8.3307,15.3294,10.4768,4.4293,1.5787,9.295-.5159,9.5422-4.9321.0874-1.5609-.0054-3.1319-.0159-4.6982-1.3534.324-2.8609.3724-4.03,1.0259-3.0121,1.6839-5.8248,2.1906-8.8461.0213-1.9476-1.3986-3.1608-3.0927-2.6893-5.483.4389-2.2252,1.6048-4.1146,4.0777-4.5533,2.3455-.4161,4.6303-.6124,6.2972,1.8312,1.0439,1.5302,2.3692,2.9476,3.8191,4.1001,1.507,1.1981,2.9202.7277,2.9154-1.3517-.008-3.4088-.1652-6.8333-.5388-10.2203-.3032-2.748-2.8028-4.6138-5.5518-4.2046-5.3884.8022-10.1267,3.0122-13.415,7.5075-2.3922,3.2703-4.471,6.7698-6.8941,10.4804ZM383.1079,18.0353c-2.2556-2.2936-4.172-5.3945-6.9496-6.832-6.1918-3.2045-8.8449-2.9496-11.5507,3.3707-.3198.7471-.7099,1.4667-1.104,2.1789-2.7394,4.9507-2.364,9.1887,1.7818,12.9553,3.3331,3.0282,7.024,5.6947,10.7348,8.2638,2.409,1.6677,5.7188,1.3998,6.2058-.4722,1.0996-4.2264,1.6871-8.5973,2.2363-12.9405.0639-.5054-1.3955-1.6396-2.2028-1.6951-.7914-.0545-2.1987.7472-2.3852,1.4319-.7117,2.6121-2.1945,4.1218-4.8681,4.3363-2.468.1979-6.266-1.9882-7.1419-4.1367-.262-.6427-.3164-1.559-.0658-2.1914,1.721-4.3431,6.349-5.7467,10.379-3.057,1.9596,1.3079,3.4203,1.4376,4.9304-1.2117Z"/>
  <path d="M434.0981,77.1897c4.6116.7937,6.9175,4.3881,9.5174,7.5802,2.9233,3.5892,1.4477,10.0918-3.8739,10.3057-2.2183.0892-5.2591.0808-6.5124-1.2321-1.6491-1.7277-1.8159-4.7843-.0237-7.1633-3.0885-2.5085-6.5561-2.4531-9.6241.1563-3.4414,2.927-6.6808,6.1164-10.2918,8.8116-3.3061,2.4677-9.36,4.1132-13.347-.5115-3.1077-3.6049-5.8765-7.7856-5.2312-13.1119.0576-.4751-.3608-.9945-.3577-1.4921.0097-1.5866.1619-3.1725.1669-4.7589.0043-1.3346.007-2.6909-.2119-4.0004-.6347-3.7977,1.0077-7.1689,1.7931-10.7124.7126-3.2151,2.3312-5.9103,3.8205-8.7818,1.1919-2.2979,1.5569-5.9489.5814-8.2873-4.4001-10.5471-4.5054-21.3946-3.4298-32.4244.7979-8.1815,9.1205-12.8958,17.2592-9.4211,3.3856,1.4454,6.3479,3.2631,8.3729,6.5349,1.4115,2.2805,5.3938,2.8999,8.9817,1.7583-.0896-.4773-.1438-.988-.2844-1.4737-.4074-1.4069-1.5928-3.1831-1.114-4.1209.8442-1.6535,2.5113-3.1047,4.1646-4.0806,3.0808-1.8188,7.6398-.1865,9.7649,2.9263,2.477,3.6282,1.4043,7.933-1.6641,10.4439-4.2105,3.4455-8.6724,4.0763-13.6656,3.6257-.3417-.0308-.6922.035-1.1281.0612.5127,2.3931,2.2175,3.196,4.2186,3.1979,8.3595.0078,16.735-.4418,25.0725-.0469,4.5827.217,6.6994-2.0242,9.0532-5.2751,4.9063-6.7763,13.616-6.1095,17.1948,1.0274,1.2322,2.4572,2.182,5.062,3.1462,7.6422.1847.4942.0467,1.5039-.3048,1.7427-3.6788,2.4993-6.4451,6.6648-11.438,6.7909-1.9141.0483-4.1996-.0295-5.6987-1.0014-3.7374-2.4232-7.7511-3.6701-12.0549-3.6066-9.4971.1401-18.9963.4548-28.4808.9592-3.6601.1947-6.9595,1.6407-9.698,4.3668-2.2981,2.2878-4.9693,4.1985-7.4497,6.3064-5.2876,4.4935-4.4155,7.6765-.5713,12.4902,4.9448,6.1917,12.0627,9.2725,18.8475,12.9469,6.0236,3.2622,12.3694,2.5382,18.6356,2.9373,3.9198.2497,7.9156-.087,11.8257-.5744,1.6628-.2073,3.4016-1.2171,4.7447-2.307,3.6606-2.9707,7.427-4.4411,11.9969-2.1663,1.1265.5608,2.369.9187,3.5902,1.2536,2.9848.8185,5.4514,2.3017,6.0642,5.5402.7047,3.724-.1098,7.0313-3.5484,9.2535-.454.2934-.9387.5844-1.2928.9806-4.0695,4.5537-8.9687,4.9372-14.2248,2.6202-1.2341-.544-2.1648-1.8816-3.0884-2.9776-.4399-.522-.5209-1.3398-.7899-2.0134-1.0657-2.6685-2.6668-4.1339-5.9187-3.9579-5.963.3227-11.9601.0032-17.9255.3013-1.9299.0965-3.8049,1.2884-5.7051,1.9792.0456.3195.0911.639.1367.9586ZM398.0751,66.2207c.2093,1.8031.3076,3.0715.5122,4.3224.3933,2.4046,1.2647,2.8412,3.2459,1.3199,1.3283-1.02,2.5459-2.3421,3.4117-3.772,1.6439-2.7149,4.0713-2.3801,6.4699-1.9228,2.4261.4626,3.5692,2.3193,3.9194,4.6281.3685,2.4298-.7407,4.0847-2.7788,5.4223-2.739,1.7977-5.256,1.791-8.1019.1722-1.35-.7678-3.1359-.7695-4.7243-1.1183.0914,1.8465-.1274,3.777.3443,5.5207.7797,2.8831,5.0588,5.468,7.449,4.6526,4.9058-1.6736,9.4634-4.0059,13.2727-7.6245q3.6391-3.4569,1.1664-7.5431c-.2324-.3843-.348-.8379-.5684-1.2309-2.774-4.9474-6.2797-9.1778-11.6923-11.3822-1.5687-.6389-3.2699-.9796-4.9341-1.3506-1.987-.4429-5.4147,1.0788-5.757,2.6597-.5541,2.5594-.8904,5.1658-1.2349,7.2465ZM398.7191,27.3494c.4147,2.2576.8727,5.2944,1.5499,8.2815.6468,2.8523,2.1141,3.7942,4.833,2.9411,5.5831-1.7518,9.8791-5.5066,13.7967-9.6381,3.4728-3.6625,3.7173-7.8331,1.1215-12.1895-.4369-.7333-.6488-1.6174-.8751-2.456-.4927-1.8257-3.8616-4.9856-5.4784-4.9061-3.0157.1481-5.9839.5898-8.1533,3.0122-1.3726,1.5327-2.6921,3.1209-3.9214,4.7692-.4002.5367-.7177,1.8785-.6002,1.9393.8957.4638,1.8929.8216,2.8924.9514.4058.0527.8877-.5571,1.3491-.8427,3.2329-2.0017,6.4558-1.8784,9.061.7771.9381.9563,1.6724,2.7106,1.5316,3.9945-.2443,2.2279-4.2844,4.5938-7.0169,4.6284-2.7496.0348-4.4891-1.3509-5.0207-3.9622-.3454-1.6961-1.3296-1.9949-2.7228-1.8991-2.5523.1756-2.2861,2.0807-2.3464,4.599Z"/>
  <path d="M748.328,48.6963c-1.4874.1023-2.8394.0929-4.155.3072-2.716.4423-4.4038-.5315-5.6088-3.4457-1.0072-2.4359.1157-4.2137,1.9205-5.6721,2.9369-2.3732,6.5563-1.9718,9.607-1.1211,5.899,1.6451,13.1706,6.5794,17.4258,12.7464-4.9646,7.367-11.8812,11.9892-20.5105,14.1552-2.6834.6736-7.349-1.3666-8.7269-3.7005-1.4652-2.4819-.9898-6.0319,1.1524-8.6036,1.834-2.2018,5.8654-2.3372,7.934-.2768.7059.7032,1.512,1.3188,2.1419,2.082.8168.9895,1.4605,2.0229.3929,3.3596-.3616.4527-.5291,1.6829-.2692,1.8811.5607.4276,1.6369.7896,2.1842.5238,3.1407-1.5251,6.2215-3.184,9.2501-4.9238,1.1071-.636,1.9896-1.6519,3.0198-2.4349,1.8364-1.3956,2.0681-2.6516.0232-4.1544-1.6725-1.229-3.0905-2.7985-4.723-4.0884-4.0839-3.2268-6.8179-2.784-9.6382,1.4382-.4851.7261-1.0357,1.4085-1.4202,1.9278Z"/>
  <path d="M434.6745,34.1572c1.396.3671,3.2534.5442,4.7999,1.3317,2.6119,1.3301,3.4483,3.5482,2.6614,5.8204-1.1044,3.189-2.5158,3.6615-5.93,3.739-3.219.073-4.7847-1.2757-6.0755-3.9351-1.0823-2.2299-4.1874-2.7597-6.9967-.9442-2.7165,1.7556-5.0825,4.0723-7.4865,6.2693-.3067.2802-.1814,1.6685.1964,1.9629,3.4655,2.7012,7.0008,5.317,10.5936,7.8471.6889.4851,1.7076.6019,2.5936.6879,2.3241.2257,2.6001-.363,1.7945-2.607-.2987-.8321-.2669-2.3115.2619-2.8124,1.5661-1.4839,3.3249-3.4214,5.2451-3.7356,3.7973-.6213,5.9742,1.6026,6.8396,5.7597.6531,3.1372-.8171,5.4265-4.0212,7.0959-2.5312,1.3189-4.9914,1.3392-7.5793.5441-6.3076-1.9378-11.5115-5.6653-16.0766-10.2806-2.7707-2.8011-2.5633-3.8998.2716-6.6565,4.0748-3.9624,8.6004-7.2467,13.9752-9.1901,1.412-.5105,2.991-.5593,4.9331-.8964Z"/>
  <path d="M349.314,34.3951c5.0605.0568,9.1889,2.5299,13.0675,5.3506,2.4687,1.7954,4.6297,4.0355,6.7933,6.2108.4648.4674.6744,1.63.4458,2.2756-1.8085,5.1054-16.3999,14.656-22.0571,13.445-2.8944-.6196-5.5869-1.4727-6.9175-4.4715-1.3275-2.9917.0155-5.5367,1.598-7.8585,1.4738-2.1622,5.8315-2.2447,7.7529-.3987.7191.691,1.4948,1.3341,2.1393,2.089.8852,1.0368,1.5534,1.9981.5272,3.5456-1.1735,1.7694-.424,2.8819,1.6865,2.2891,2.5569-.7181,5.0773-1.8838,7.3183-3.3173,2.1632-1.3838,4.0039-3.3002,5.8615-5.1105.4044-.3941.6131-1.7366.3463-1.9566-2.8417-2.343-5.5699-4.9828-8.7874-6.6654-3.0801-1.6107-4.9061-.8093-6.3299,2.4067-1.612,3.6412-4.7765,2.6423-7.3238,2.7803-1.2209.0661-2.9603-1.5853-3.7444-2.8912-1.812-3.0178.5492-6.8958,4.3694-7.5404,1.0642-.1795,2.167-.1303,3.2542-.1828Z"/>
  <path d="M963.1158,52.5426c-2.8062-2.3502-5.0448-4.4854-7.5422-6.2554-3.7331-2.6459-6.1252-2.0577-8.6232,1.7513-1.6204,2.4711-7.4376,3.8324-9.1804,1.8075-1.2257-1.4242-2.1879-3.5898-2.1864-5.4234.0019-2.2335,3.0263-4.1317,5.518-4.4322,6.3251-.763,11.4224,2.0746,16.1511,5.6641,2.7094,2.0568,5.0581,4.5885,7.6909,7.0188-5.089,7.5294-11.7897,12.0684-20.0638,14.3787-3.0374.8482-7.3585-.6938-9.0665-2.9284-2.2837-2.9875-1.2732-5.81.3466-8.5849,1.5987-2.7386,5.8864-3.2607,8.1685-1.0649.7181.691,1.5113,1.3147,2.1604,2.0642.909,1.0496,1.4865,2.0504.4985,3.5799-1.136,1.7586-.2516,3.0796,1.6507,2.3173,3.4567-1.3852,6.757-3.2633,9.9037-5.2774,1.6639-1.0649,2.867-2.8495,4.5739-4.6151Z"/>
  <path d="M175.8286,52.0847c-5.1741,7.129-11.6314,11.8843-19.9576,13.9774-3.4409.865-6.5045-.1913-8.8447-2.585-2.5634-2.622-1.6865-5.6666-.0927-8.5441,1.6565-2.9908,6.0679-3.6325,8.4965-1.2323.7076.6994,1.5067,1.317,2.1463,2.0717.8318.9817,1.4687,2.0092.4333,3.3482-.3665.4739-.6015,1.6834-.3671,1.8618.5654.4303,1.6418.8393,2.1628.5731,3.4231-1.7485,6.8434-3.5381,10.0748-5.6103,1.5271-.9793,2.6343-2.6131,4.496-4.5318-3.6513-2.554-6.7363-5.2451-10.2785-7.0288-3.0933-1.5576-4.2656-.7003-6.0134,2.4891-1.8433,3.3638-7.9575,4.0911-10.3036,1.2257-2.8904-3.5303-1.0668-7.9919,3.7435-8.8257,3.1252-.5417,6.164-.3424,9.2174,1.0512,5.8972,2.6915,10.712,6.6185,15.087,11.7597Z"/>
  <path d="M19.3341,51.9747c4.694-5.9158,10.4654-10.2668,17.4522-12.5949,2.9701-.9897,6.4716-.9827,9.4383,1.0037,2.1958,1.4702,2.9659,3.6583,2.0696,5.853-1.2273,3.0053-2.6485,3.572-5.637,3.4608-3.2188-.1197-5.1911-1.2416-6.5174-4.2872-.9452-2.1706-4.3927-2.2933-7.303-.2856-2.4466,1.6877-4.6502,3.7601-6.777,5.8498-.4057.3986-.2956,2.1177.1617,2.4715,3.3424,2.586,6.7765,5.0674,10.3159,7.3761.988.6445,2.4259.8079,3.6578.8089,1.1188.0009,1.9067-.687,1.1307-2.0198-.6245-1.0726-1.5715-2.1929-.2149-3.3376,1.6812-1.4185,3.274-3.5157,5.2068-3.9376,3.546-.7741,6.0373,1.607,6.9898,5.5696.7938,3.3026-.6497,5.476-3.9565,7.2733-4.6195,2.5108-8.7325.6613-12.5564-1.3931-5.2393-2.8148-10.3188-6.061-13.4606-11.8111Z"/>
  <path d="M810.0871,52.4205c3.4611,4.7423,7.681,7.7458,12.5923,9.755,1.0364.424,2.4147.0125,3.6355-.014-.2236-.9683-.4483-1.9365-.6705-2.9051-.0765-.3336-.2577-.6884-.2019-.9995.2753-1.5353,4.6713-5.1726,6.1697-5.1555,3.9256.0448,5.8526,1.7391,6.8106,5.9883.6266,2.7796-.8212,5.4228-3.2583,6.7945-4.332,2.4381-8.4569,1.3112-12.3627-.7073-5.6252-2.907-11.002-6.247-14.4331-12.3195,4.0511-4.9545,8.9237-9.0971,15.0957-11.6319,3.9082-1.6051,7.8373-2.1808,11.6736.032,2.3782,1.3718,3.0789,3.719,2.1223,6.0479-1.1529,2.8067-2.6953,3.2536-5.7239,3.2355-3.3651-.0201-5.12-1.3502-6.4051-4.3376-.8829-2.0524-4.5968-2.1092-7.3265-.1498-2.6274,1.8858-5.0111,4.1109-7.7176,6.3668Z"/>
  <path d="M613.6759,48.2814c4.0744-5.1229,8.9881-8.9215,14.8441-11.6489,3.0082-1.401,6.0578-1.6232,9.1998-1.1882,2.5074.3471,4.7234,1.8323,5.0609,4.2493.2311,1.6544-.962,3.6538-1.9199,5.2596-.4091.6857-1.8177.9125-2.8153,1.0656-.7673.1177-1.6829-.4864-2.3927-.2826-2.4017.6896-3.4742-.7403-4.2241-2.5156-1.7256-4.085-4.6936-3.8486-7.8387-2.015-2.7003,1.5743-4.9883,3.8872-7.3227,6.0219-.3338.3052-.1931,1.8201.221,2.143,3.4647,2.7009,7.0019,5.3163,10.6225,7.8042.8289.5695,2.0603.7238,3.1154.7537,1.5374.0437,2.3836-.803,1.2943-2.2122-1.3979-1.8084-.4942-3.0624.7844-4.1411,1.5703-1.3247,2.5258-3.5433,5.3368-3.103,3.7493.5872,5.4025,2.0991,6.134,6.4417.4775,2.834-1.1293,4.8211-3.9958,6.5347-4.1931,2.5066-8.0087.8987-11.5025-.905-3.984-2.0568-7.6265-4.8454-11.192-7.6068-1.4091-1.0914-2.2107-2.9669-3.4095-4.6552Z"/>
  <path d="M570.9399,48.3114c-4.967,7.5773-12.0548,11.854-20.3732,14.3334-2.5672.7652-7.3191-1.336-8.7724-3.5868-1.5886-2.4603-1.2813-5.7029.8135-8.5818,1.689-2.3214,5.8424-2.6841,7.8902-.685.8417.8217,1.9217,1.5255,2.4338,2.5196.4363.847.2743,2.0338.2614,3.0689-.0083.6603-.5323,1.7096-.2904,1.898.5605.4362,1.646.8466,2.1664.58,3.3485-1.715,6.609-3.603,9.8774-5.4712.374-.2138.5934-.6821.9249-.9888,3.5184-3.2552,3.5436-3.2781-.0705-6.5544-1.3388-1.2137-2.725-2.4169-4.2438-3.3824-3.8605-2.4545-6.2834-2.0326-8.3543,2.0085-1.7997,3.5118-4.9234,2.3501-7.4148,2.4034-1.2381.0265-2.9225-2.0782-3.7065-3.5826-1.4756-2.8314.9535-6.2562,4.749-6.8212,3.1276-.4656,6.1746-.2606,9.2015,1.146,5.8648,2.7253,10.7787,6.5199,14.9079,11.6964Z"/>
  <path d="M216.4704,50.0952c6.3299-6.3277,12.5553-12.7958,22.5478-12.5541,1.5292.0371,3.2306.6544,4.5088,1.5141,1.7802,1.1974,2.9078,3.0425,2.0437,5.3682-1.1361,3.0581-2.8549,4.0677-5.748,3.6698-1.3323-.1832-2.6882-.1949-4.1498-.2921-.4349-.6002-1.0205-1.2872-1.473-2.0528-2.3438-3.9659-4.4657-4.6603-8.2994-2.1201-2.4728,1.6384-4.6409,3.7582-6.8389,5.7783-.7887.7249-1.1035,1.4835.2963,2.4225,3.1545,2.1163,6.0371,4.6336,9.1235,6.8585.9214.6642,2.1208,1.058,3.2509,1.2788.8152.1593,1.7265-.1728,2.5949-.2858-.1097-.8174-.2001-1.6379-.3361-2.4509-.086-.5143-.4126-1.0469-.3316-1.5199.2599-1.5168,4.4977-5.0055,5.9638-5.018,3.9684-.0337,6.0696,1.8503,6.9085,6.1943.5177,2.6807-.9585,5.1519-3.3006,6.4863-5.1145,2.9139-9.7335.961-14.0416-1.5391-4.8822-2.8331-9.8606-5.7688-12.7195-11.738Z"/>
</svg>